<?xml version="1.0" encoding="UTF-8"?><svg id="Layer_1" xmlns="http://www.w3.org/2000/svg" viewBox="0 0 1619.28 468.72"><path d="M239.96,468.72c-3-.44-6.01-.79-8.99-1.32-7.75-1.39-15.28-3.53-22.27-7.25-11.9-6.33-18.8-16.29-21.14-29.48-.74-4.2-.98-8.45,0-12.63,1.79-7.68,6.22-13.27,13.68-16.11,7.03-2.67,13.37-1.27,18.8,3.92,2.6,2.48,5.01,5.16,7.92,7.32,8.02,5.97,17,8.18,26.9,7.17,8.6-.87,16.82-3.06,24.66-6.65,12.12-5.55,21.35-14.21,27.71-25.9,4.78-8.79,7.67-18.25,9.88-27.95,2.34-10.31,3.65-20.76,4.44-31.3,.67-8.92,1.23-17.85,1.45-26.8,.05-1.91,.27-3.83,.33-5.74,.02-.75,.43-1.75-.39-2.2-.67-.37-1.32,.37-1.92,.72-3.26,1.87-6.49,3.79-9.76,5.65-5.35,3.05-10.61,6.26-16.36,8.54-13.81,5.48-27.53,5.09-41.04-.93-15.58-6.94-27.97-17.82-37.89-31.56-11.25-15.6-17.7-33.19-21.25-51.96-2.36-12.48-2.93-25.09-2.23-37.73,.49-8.84,1.12-17.72,3.72-26.29,1.18-3.91,2.57-7.75,4.48-11.36,4.37-8.26,12.66-12.45,21.55-10.96,9.29,1.55,15.98,9.14,16.38,18.62,.18,4.25-.21,8.46-.74,12.67-1.19,9.36-2.14,18.74-1.69,28.2,.57,12.1,3.18,23.73,7.93,34.88,2.38,5.61,5.16,10.99,8.81,15.91,5.29,7.12,12.03,12.3,20.36,15.42,1.87,.7,3.47,.63,5.24-.35,6.41-3.51,11.02-8.63,14.06-15.24,2.76-6.02,4.18-12.42,5.25-18.89,.96-5.84,1.38-11.73,1.66-17.65,.52-11.25,1.06-22.51,2.75-33.66,.71-4.68,1.72-9.3,4.07-13.47,7.99-14.14,27.67-16.76,39.21-3.37,4.54,5.27,7.95,11.22,10.02,17.87,3,9.61,6.39,19.1,8.92,28.86,1.96,7.53,3.11,15.18,3.62,22.93,.68,10.28,1.4,20.56,1.89,30.86,.66,13.74,.84,27.49,.56,41.24-.42,20.89-2.34,41.63-6.27,62.17-2.49,13-5.96,25.7-11.64,37.71-11.95,25.29-30.43,43.98-56.17,55.25-13.3,5.82-27.24,9.19-41.68,10.51-.47,.04-.92,.22-1.39,.33h-13.44Z"/><path d="M25.92,0c.37,.14,.74,.3,1.12,.41,9.54,2.74,14.44,9.48,16.21,18.86,.36,1.88,.45,3.8,.5,5.73,.22,9.19,.35,18.38,.63,27.56,.3,10.23,.09,20.47,.46,30.69,.29,7.83,.2,15.66,.44,23.49,.26,8.3,.54,16.61,1,24.91,.19,3.51,.33,7.02,.43,10.54,.01,.56,.04,1.12,.13,1.67,.31,1.96,.61,2.21,2.63,2.34,8.37,.53,16.75,.98,25.1,1.91,14.97,1.67,28.05,7.58,38.83,18.11,15.91,15.55,25.58,34.46,28.83,56.42,4.09,27.57-3.09,52.1-20.97,73.47-8.16,9.75-18.11,17.33-29.3,23.3-13.57,7.23-27.96,12.24-43,15.35-5.67,1.17-11.38,1.54-17.14,.35-8.56-1.78-14.73-6.66-18.94-14.18-2.97-5.29-4.62-11.04-5.73-16.96-1.88-10.07-3.1-20.19-3.5-30.45-.31-8.15-.15-16.3-.43-24.45-.37-10.87-.18-21.74-.54-32.6-.31-9.59-.12-19.18-.43-28.77-.39-12.39-.16-24.78-.53-37.16-.35-11.83-.08-23.66-.46-35.48-.42-13.11-.14-26.22-.5-39.32-.18-6.31-.19-12.62-.31-18.94-.02-.88,.02-1.76-.44-2.57v-15.83c.74-2.22,.6-4.55,.83-6.83,.44-4.44,.77-8.89,1.96-13.21C4.4,12.5,7.36,7.52,12.21,3.75,14.59,1.9,17.37,.96,20.16,0,22.08,0,24,0,25.92,0Zm23.38,195.49c-.35,.41-.27,.9-.33,1.37-.7,5.64-.45,11.32-.77,16.98-.41,7.26,.15,14.53,.5,21.78,.48,9.8,1.43,19.58,2.8,29.31,.66,4.66,1.34,9.32,2.08,13.97,.32,2.01,.47,2.08,2.3,1.57,9.95-2.8,19.27-6.88,27.1-13.8,8.51-7.52,13.13-16.94,13.39-28.38,.21-8.98-2.19-17.36-5.88-25.45-.52-1.15-1.48-1.6-2.53-2.03-12.29-4.98-24.58-9.97-36.87-14.94-.57-.23-1.11-.68-1.8-.38Z"/><path d="M1619.28,364.61c-.11,.55-.27,1.09-.31,1.64-.31,5.04-2.66,9.02-6.62,11.98-6.78,5.06-14.04,5.73-21.65,1.92-2.42-1.21-4.31-3.04-5.78-5.28-5.77-8.82-10.3-18.16-12.83-28.49-4.17-17.08-7.76-34.29-11.44-51.49-3.09-14.46-6.48-28.85-9.86-43.24-.51-2.15-.77-4.37-1.68-6.36-.8-.1-1.16,.4-1.57,.74-3.32,2.76-6.66,5.5-9.91,8.33-1.94,1.69-3.47,3.74-4.8,5.95-4.27,7.14-8.02,14.56-11.76,21.99-2.41,4.79-4.89,9.53-7.58,14.17-3.22,5.54-7.52,9.9-13.64,12.24-7.93,3.03-20.81,1.55-27.68-6.26-3.34-3.79-5.26-8.21-6.06-13.1-1.38-8.36-2.63-16.73-3.86-25.11-1.42-9.72-2.78-19.46-4.1-29.19-1.41-10.45-2.79-20.91-4.09-31.37-.98-7.93-1.89-15.86-2.69-23.81-.52-5.08-.74-10.2-1.18-15.29-.35-3.99-.47-7.97-.46-11.97,0-2.17,.2-4.32,.63-6.43,1.85-9.19,7.85-14.53,16.42-17.34,2.86-.94,5.71-.2,8.46,.77,2.04,.72,3.97,1.7,5.77,2.9,2.52,1.68,4.46,3.81,5.64,6.66,2.55,6.16,4.2,12.58,5.48,19.1,2.71,13.72,5.23,27.47,7.31,41.31,.71,4.74,1.5,9.47,2.31,14.2,.26,1.54,.56,1.68,1.86,.76,4.11-2.92,8.18-5.88,12.24-8.86,5.55-4.07,11.1-8.13,17.2-11.36,5.87-3.1,12.08-5.17,18.77-5.25,9.17-.12,16.99,3.32,23.6,9.59,5.95,5.65,10.08,12.57,13.66,19.84,3.38,6.86,5.39,14.17,7.13,21.58,4.4,18.75,8.7,37.53,12.74,56.36,3.29,15.31,6.49,30.65,9.76,45.96,.22,1.01,.11,2.09,.58,3.05v19.19Z"/><path d="M847.82,190.78c-3.91,4.83-8.02,8.99-10.45,14.58-7.56,17.37-14.9,34.84-22.31,52.27-1.78,4.2-3.79,8.3-6.49,12-3.74,5.13-8.45,8.98-14.85,10.24-16.47,3.23-29.03-7.95-30.33-21.99-.55-5.97-.86-11.95-.93-17.94-.12-10.87-.19-21.74-.52-32.6-.28-9.43-1.82-18.62-6.59-26.98-.16-.28-.29-.57-.46-.84-.37-.59-.54-1.53-1.32-1.58-.98-.06-1.14,.98-1.48,1.66-4.04,8.08-6.56,16.64-8.04,25.52-1.23,7.41-1.85,14.9-2.53,22.38-.86,9.39-1.55,18.8-3.75,28.01-1.45,6.07-4.57,11.05-9.97,14.4-12.73,7.9-32.38,1.25-34.41-16.74-1.23-10.88-2.51-21.74-3.69-32.63-.93-8.66-1.77-17.32-2.59-25.99-.93-9.78-1.86-19.56-2.69-29.35-.48-5.57-.71-11.16-1.16-16.74-.28-3.43-.47-6.85-.47-10.29,0-1.85,.23-3.67,.63-5.47,1.89-8.57,8.27-13.84,17.23-14.28,3.78-.18,7.5,.21,11.18,1.12,1.24,.31,2.5,.56,3.73,.89,5.83,1.55,11.41,.73,16.83-1.7,5.04-2.26,10.21-4.18,15.62-5.37,11.72-2.59,21.82,.41,30.4,8.71,6.27,6.06,11.08,13.21,15.51,20.65,2.94,4.95,5.8,9.95,8.69,14.92,.2,.35,.39,.7,.61,1.03,1,1.53,1.18,1.59,2.49,.29,4.37-4.34,8.69-8.72,13.07-13.06,3.93-3.9,8.18-7.41,13.04-10.11,13.71-7.61,28.53-6.35,40.33,3.97,4.51,3.94,8,8.7,11.17,13.71,8.26,13.08,13.99,27.3,18.56,42,5.07,16.34,9.97,32.73,16.04,48.73,3.89,10.26,8.33,20.25,14.55,29.38,2.16,3.18,4.51,6.21,7.09,9.06,3.68,4.07,6.22,8.67,7.09,14.15,2.31,14.59-8.04,23.98-19.23,25.28-5.04,.58-9.78-.35-13.85-3.42-9.45-7.13-17.89-15.27-23.97-25.55-4.2-7.1-7.67-14.57-10.86-22.17-4.92-11.72-9.72-23.5-13.81-35.53-3.06-9-5.93-18.08-8.71-27.17-1.87-6.11-5.08-11.52-8.4-17.42Z"/><path d="M510.48,254.99c4.62,1.81,9.06,3.02,13.69,3.52,8.91,.96,16.92-1.44,24.32-6.34,3.26-2.16,6.59-4.25,10.18-5.85,5.54-2.47,11.3-3.58,17.3-2.25,6.84,1.52,11.78,5.58,14.77,11.89,2.55,5.39,2.24,10.86,0,16.28-1.45,3.5-3.53,6.64-6.04,9.46-12.31,13.86-27.87,21.65-46.04,24.49-11.94,1.87-23.74,1.09-35.38-2.22-11.59-3.3-21.82-8.96-30.66-17.19-9.77-9.09-17.3-19.64-21.65-32.33-2.24-6.53-3.55-13.27-4.66-20.06-1.4-8.63-1.9-17.33-1.4-26.05,1.15-19.77,6.77-38.15,17.41-54.93,9.25-14.6,21.18-26.61,35.38-36.36,7.07-4.85,14.83-8.18,23.41-9.35,11.28-1.54,21.61,.98,30.98,7.38,6.22,4.25,11.3,9.67,15.38,15.97,6.53,10.09,11.37,20.93,13.55,32.82,3.58,19.51-1.6,36.52-14.86,51.17-6.01,6.64-13.16,11.87-20.49,16.89-10.57,7.22-21.51,13.85-32.25,20.8-.92,.6-1.96,1.05-2.93,2.26Zm-15.17-53c0,.68-.02,1.48,0,2.28,.06,2.23,.41,2.57,2.53,2.27,3.9-.55,7.64-1.63,11.23-3.3,5.21-2.43,9.7-5.87,13.92-9.69,3.2-2.89,6.51-5.66,9.18-9.09,2.66-3.41,3.07-7.1,1.76-11.07-.4-1.21-.93-2.38-1.48-3.53-1.79-3.76-4.09-7.23-6.34-10.72-1.1-1.71-1.22-1.72-3.02-.53-5.16,3.39-10.05,7.1-14.32,11.59-8.43,8.88-13.03,19.4-13.48,31.79Z"/><path d="M1041.71,227.11c2.6,.23,5.24,.52,7.89-.43,5.12-1.84,10.31-3.49,15.69-4.4,2.91-.49,5.82-.81,8.82-.39,4.96,.69,8.85,3.05,11.96,6.86,3.37,4.14,5.6,8.92,7.75,13.75,2.68,5.99,4.64,12.26,6.86,18.42,1.98,5.5,4.4,10.81,6.9,16.08,5.85,12.37,12.34,24.39,20.08,35.71,4.79,7.01,10.24,13.5,15.63,20.04,3.01,3.65,5.61,7.58,7.52,11.94,3.8,8.62,1.32,20.36-5.73,26.65-5.27,4.7-11.36,5.89-17.83,3.08-7.21-3.14-13.99-7.15-19.69-12.64-4.09-3.94-7.54-8.48-11-12.98-10.98-14.29-20.94-29.25-29.37-45.2-1.34-2.54-2.79-5.03-4.23-7.53-.89-1.55-1.15-1.6-2.5-.4-3.41,3.02-6.8,6.07-10.19,9.11-4.23,3.79-8.55,7.47-13.17,10.78-5.67,4.06-11.85,6.92-18.76,8.13-13.1,2.29-25.2-3.7-31.6-15.06-3.15-5.59-4.82-11.63-5.45-18-.59-5.97-.96-11.95-.82-17.95,.54-23.67,6.55-45.77,19.05-66,9.39-15.2,21.32-28.15,35.37-39.11,7.84-6.12,16.83-9.46,26.91-9.35,9.94,.11,18.55,3.73,26.01,10.2,2.6,2.26,4.89,4.81,6.95,7.59,9,12.14,.46,28.65-12.51,30.82-4,.67-7.95,.76-11.9-.24-3.41-.87-6.82-1.72-10.21-2.67-1.19-.33-1.93-.05-2.65,.93-5.16,7.02-10.36,14.02-15.55,21.02-.23,.31-.51,.63-.24,1.24Z"/><path d="M1227.68,178.41c0-9.67-.12-19.35,.03-29.02,.16-9.82,.48-19.65,.95-29.46,.48-10.05,1.06-20.1,1.9-30.13,1.16-13.85,2.3-27.7,4.66-41.42,1.06-6.16,2.5-12.23,4.92-18.01,3.05-7.29,8.39-12.01,16.33-13.29,9.07-1.47,20.55,2.56,22.17,16.71,.33,2.87,.29,5.71,.09,8.6-.36,5.34-.41,10.7-.66,16.04-.4,8.46-.87,16.91-1.27,25.36-.25,5.27-.39,10.54-.65,15.8-.39,7.98-.88,15.95-1.26,23.93-.46,9.74-1.01,19.49-.47,29.23,.33,5.99,.17,11.99,.45,17.97,.46,9.66,.53,19.32,.84,28.99,.26,8.07,.29,16.14,.6,24.2,.39,10.14,.6,20.28,.97,30.42,.34,9.37,1.37,18.65,5.1,27.42,1.76,4.14,3.93,8.03,6.63,11.63,2.46,3.28,4.49,6.78,5.57,10.8,1.89,7.07,.04,13.13-4.88,18.31-4.65,4.89-10.48,7.46-17.14,8.28-7.51,.92-14.28-.81-20.19-5.63-2.39-1.95-4.04-4.53-5.68-7.08-6.37-9.96-10.47-20.77-12.47-32.44-1.81-10.56-3.46-21.13-4.57-31.78-.45-4.29-.82-8.59-1.03-12.9-.39-7.74-.48-15.49-.65-23.24-.29-13.1-.42-26.21-.3-39.31Z"/><path d="M1375.23,199.92c9.68,.02,18.21,6.78,20.99,16.63,1.16,4.1,1.46,8.34,1.82,12.55,.7,8.2,.79,16.43,1.18,24.64,.36,7.55-.73,14.97-.98,22.46-.31,9.44-.26,18.85,2.17,28.08,1.58,6.01,4.01,11.67,7.79,16.61,3.69,4.82,3.99,9.83,1.43,15.06-3.21,6.55-8.26,11.13-15.39,13.09-3.43,.94-6.9,.57-10.01-1.19-6.71-3.78-12.98-8.16-18.03-14.1-4.57-5.36-7.27-11.61-9.07-18.31-1.29-4.81-1.74-9.71-1.99-14.68-1.22-24.27-.89-48.56-.86-72.84,0-3.99-.11-8,.95-11.91,2.28-8.46,7.47-13.93,16.19-15.81,1.26-.27,2.54-.27,3.82-.27Z"/><path d="M1359.66,124.06c1.88,.01,3.7,.18,5.52,.51,8.37,1.49,13.35,6.79,16.06,14.47,1.3,3.69,.7,7.41-.67,11.03-2.21,5.84-5.65,10.92-9.74,15.57-2.74,3.13-5.74,6-9.32,8.21-4.41,2.72-9.08,3.33-14.04,1.97-4.17-1.14-7.81-3.21-10.92-6.23-3.32-3.22-5.84-7-7.63-11.24-2.78-6.59-1.87-12.87,2.05-18.7,6.84-10.17,16.58-15.12,28.7-15.59Z"/></svg>